<?xml version="1.0" standalone="no"?><!DOCTYPE svg PUBLIC "-//W3C//DTD SVG 1.1//EN" "http://www.w3.org/Graphics/SVG/1.1/DTD/svg11.dtd"><svg t="1745587981494" class="icon" viewBox="0 0 1024 1024" version="1.1" xmlns="http://www.w3.org/2000/svg" p-id="1062" xmlns:xlink="http://www.w3.org/1999/xlink" width="200" height="200"><path d="M516.4032 510.0544m-450.816 0a450.816 450.816 0 1 0 901.632 0 450.816 450.816 0 1 0-901.632 0Z" fill="#FFE3DB" p-id="1063"></path><path d="M848.64 465.92l-53.3504-54.784V265.4208c0-12.8-8.2944-23.1424-18.5344-23.1424h-84.6336c-10.24 0-18.5344 10.24-18.5344 23.1424v20.48L583.68 193.536a94.976 94.976 0 0 0-134.144 0L184.32 465.92c-18.0224 18.4832-4.0448 48.3328 22.6816 48.3328h39.7824v221.7984c0 47.104 40.704 85.2992 90.88 85.2992H691.2c50.176 0 90.8288-38.1952 90.8288-85.2992v-221.7984h43.8272c26.8288 0 40.8064-29.8496 22.784-48.3328z m-389.9904 164.9664a25.6 25.6 0 0 1-51.2 0V583.68h-40.96v47.2576a25.6 25.6 0 0 1-51.2 0V485.12a25.6 25.6 0 0 1 51.2 0V532.48h40.96v-47.36a25.6 25.6 0 0 1 51.2 0z m157.696-40.192a69.7344 69.7344 0 0 1-139.4688 0v-61.44a69.7344 69.7344 0 1 1 139.4688 0z m115.3024-77.056h-17.0496v117.248a25.6 25.6 0 0 1-51.2 0v-117.248h-17.1008a25.6 25.6 0 0 1 0-51.2h85.3504a25.6 25.6 0 0 1 0 51.2z" fill="#F23D4F" p-id="1064"></path><path d="M546.6112 510.72a18.5344 18.5344 0 0 0-18.5344 18.5344v61.44a18.5344 18.5344 0 1 0 37.0688 0v-61.44a18.5856 18.5856 0 0 0-18.5344-18.5344z" fill="#F23D4F" p-id="1065"></path><path d="M848.64 465.92l-53.3504-54.784V265.4208c0-12.8-8.2944-23.1424-18.5344-23.1424h-84.6336c-10.24 0-18.5344 10.24-18.5344 23.1424v20.48L583.68 193.536a94.976 94.976 0 0 0-134.144 0L184.32 465.92c-18.0224 18.4832-4.0448 48.3328 22.6816 48.3328h39.7824v184.32a450.9184 450.9184 0 0 0 535.5008-74.9056v-109.4144h43.8272c26.5728 0 40.5504-29.8496 22.528-48.3328z m-389.9904 164.9664a25.6 25.6 0 0 1-51.2 0V583.68h-40.96v47.2576a25.6 25.6 0 0 1-51.2 0V485.12a25.6 25.6 0 0 1 51.2 0V532.48h40.96v-47.36a25.6 25.6 0 0 1 51.2 0z m157.696-40.192a69.7344 69.7344 0 0 1-139.4688 0v-61.44a69.7344 69.7344 0 1 1 139.4688 0z m115.3024-77.056h-17.0496v117.248a25.6 25.6 0 0 1-51.2 0v-117.248h-17.1008a25.6 25.6 0 0 1 0-51.2h85.3504a25.6 25.6 0 0 1 0 51.2z" fill="#FC4956" p-id="1066"></path><path d="M546.6112 510.72a18.5344 18.5344 0 0 0-18.5344 18.5344v24.8832c12.6464-5.7856 25.0368-12.1344 37.0688-19.0464v-5.8368a18.5856 18.5856 0 0 0-18.5344-18.5344zM366.7456 593.92c13.7216-0.768 27.3408-2.1504 40.96-4.096V583.68h-40.96z" fill="#FF5C64" p-id="1067"></path><path d="M776.7552 242.2784h-84.6336c-10.24 0-18.5344 10.24-18.5344 23.1424v20.48L583.68 193.536a94.976 94.976 0 0 0-134.144 0L184.32 465.92c-18.0224 18.4832-4.0448 48.3328 22.6816 48.3328h39.7824v70.3488A455.68 455.68 0 0 0 315.5456 593.92V485.12a25.6 25.6 0 0 1 51.2 0V532.48h40.96v-47.36a25.6 25.6 0 0 1 51.2 0v93.952c6.144-1.6384 12.1856-3.3792 18.2272-5.12v-44.544a69.6832 69.6832 0 0 1 134.8096-24.832c3.5328-2.6624 7.0144-5.12 10.24-8.1408a24.4736 24.4736 0 0 1-1.4848-8.2432 25.6 25.6 0 0 1 25.6-25.6h13.7216a450.048 450.048 0 0 0 120.9856-219.4944 14.7456 14.7456 0 0 0-4.2496-0.8192z" fill="#FF5C64" p-id="1068"></path><path d="M610.9696 221.7984L583.68 193.536a94.976 94.976 0 0 0-134.144 0L214.4256 434.8416h13.3632a450.56 450.56 0 0 0 383.1808-213.0432z" fill="#FF716E" p-id="1069"></path></svg>